<?xml version="1.0" encoding="utf-8"?>
<!-- Generator: Adobe Illustrator 21.0.1, SVG Export Plug-In . SVG Version: 6.00 Build 0)  -->
<svg version="1.1" id="Layer_1" xmlns="http://www.w3.org/2000/svg" xmlns:xlink="http://www.w3.org/1999/xlink" x="0px" y="0px"
	 viewBox="0 0 246.8 222.8" style="enable-background:new 0 0 246.8 222.8;" xml:space="preserve">
<style type="text/css">
	.st0{fill:url(#SVGID_1_);}
	.st1{fill:url(#SVGID_2_);}
	.st2{fill:url(#SVGID_3_);}
	.st3{fill:url(#SVGID_4_);}
	.st4{fill:url(#SVGID_5_);}
	.st5{fill:url(#SVGID_6_);}
	.st6{fill:url(#SVGID_7_);}
	.st7{fill:url(#SVGID_8_);}
	.st8{fill:url(#SVGID_9_);}
	.st9{fill:url(#SVGID_10_);}
	.st10{fill:url(#SVGID_11_);}
	.st11{fill:url(#SVGID_12_);}
	.st12{fill:url(#SVGID_13_);}
</style>
<radialGradient id="SVGID_1_" cx="516.4769" cy="323.8565" r="72.8497" gradientTransform="matrix(-6.123234e-17 -1 1 -6.123234e-17 -169.8292 628.4241)" gradientUnits="userSpaceOnUse">
	<stop  offset="1.884766e-02" style="stop-color:#69C2C9"/>
	<stop  offset="0.4067" style="stop-color:#69C0C8"/>
	<stop  offset="0.5464" style="stop-color:#67BCC7"/>
	<stop  offset="0.646" style="stop-color:#63B4C5"/>
	<stop  offset="0.7265" style="stop-color:#5FAAC2"/>
	<stop  offset="0.7955" style="stop-color:#599CBD"/>
	<stop  offset="0.8566" style="stop-color:#528BB7"/>
	<stop  offset="0.9119" style="stop-color:#4B78B0"/>
	<stop  offset="0.961" style="stop-color:#4465A9"/>
	<stop  offset="1" style="stop-color:#3D52A3"/>
</radialGradient>
<path class="st0" d="M179.2,52.8c32.7,0,59.2,26.5,59.2,59.2s-26.5,59.2-59.2,59.2c-10.2,0-19.8-2.6-28.2-7.1c0.9-1.7,1.1-3,2.1-5.1
	c25.4-21.6,26.4-62.8,1.6-85.5c-4.1-3.1-9.3-5.2-13.4-8.3c-3.1-2.1-7.2-2.1-11.3-3.1c-5.2,0-9.3,0-14.4,0c-6.2,1-11.3,4.1-16.5,6.2
	c-6.2,3.1-9.3,7.2-13.4,12.4c-4.1,5.2-7.2,10.3-8.3,16.5s-2.1,12.4-1,18.6c2.1,7.2,3.1,13.4,7.2,19.6c5.2,6.2,10.3,11.3,17.5,14.4
	c6.2,3.1,13.4,4.1,20.6,3.1c10.3-1,19.6-6.2,26.8-15.5c7.2-10.3,8.3-22.7,5.2-34c-2.1-7.2-6.2-12.4-12.4-17.5
	c-4.1-3.1-9.3-5.2-14.4-6.2c-3.1,0-5.2,0-8.3,0c-20.6,3.1-32,26.8-21.7,44.3c7.2,11.3,22.7,16.5,34,6.2c5.2-4.1,6.2-9.3,7.2-15.5
	c1-5.2-3.1-8.3-5.2-12.4c-2.1-3.1-6.2-3.1-9.3-4.1c-4.1-1-7.2,1-9.3,3.1c-2.1,3.1-3.1,6.2-2.1,9.3c1,2.1,2.1,4.1,4.1,5.2
	c1,1,4.1,0,4.1-1c0-2.1-2.1-4.1-1-6.2c1,0,3.1,0,4.1,0c2.1,1,3.1,4.1,3.1,6.2c0,6.2-6.2,12.4-12.4,10.3
	c-7.2-3.1-12.4-10.3-11.3-18.6c0-2.1,1-4.1,2.1-6.2c2.1-4.1,6.2-7.2,10.3-9.3c2.1,0,5.2-1,7.2-1c16.5,1,26.8,17.5,21.7,33
	c-3.1,6.2-6.2,13.4-13.4,16.5c-10.3,5.2-22.7,4.1-32-3.1c-3.1-3.1-5.2-6.2-8.3-9.3c-6.2-9.3-5.2-20.6-2.1-30.9
	c3.1-7.2,7.2-12.4,13.4-17.5c7.2-5.2,14.4-7.2,22.7-6.2c6.2,1,11.3,3.1,16.5,5.2c3.1,1,5.2,4.1,8.3,6.2
	c22.7,21.7,13.4,61.9-15.5,73.2c-10.3,4.1-22.7,4.1-33,0c-16.5-7.2-27.8-21.7-30.9-40.2c-5.2-35.1,25.8-67,60.8-60.8
	c5.2,1,10.3,2.1,14.4,4.2c2.3,0.1,3.8-0.1,5.5-0.1C159.4,55.4,169,52.8,179.2,52.8z"/>
<linearGradient id="SVGID_2_" gradientUnits="userSpaceOnUse" x1="25.502" y1="93.5291" x2="67.7744" y2="51.2567" gradientTransform="matrix(0.9826 0.1856 -0.1187 0.6283 65.4176 137.8026)">
	<stop  offset="1.884766e-02" style="stop-color:#69C2C9"/>
	<stop  offset="0.3254" style="stop-color:#69C0C8"/>
	<stop  offset="0.4711" style="stop-color:#67BBC7"/>
	<stop  offset="0.5829" style="stop-color:#63B3C5"/>
	<stop  offset="0.6774" style="stop-color:#5DA7C1"/>
	<stop  offset="0.7609" style="stop-color:#5798BC"/>
	<stop  offset="0.8368" style="stop-color:#5186B6"/>
	<stop  offset="0.9068" style="stop-color:#4972AE"/>
	<stop  offset="0.9705" style="stop-color:#415DA6"/>
	<stop  offset="1" style="stop-color:#3D52A3"/>
</linearGradient>
<path class="st1" d="M98.4,217.6c-2-12.3-0.5-21.6,0.1-33.6c0-0.1,0-0.2,0-0.3c0.3-1.7,0.5-3.5,0.7-5.6c0-0.1,0-0.2,0-0.2l2-10.5
	c0.2-1.3,1.5-2.1,2.7-1.8l3.9,0.7c1.4,0.3,2.4,1.6,2.1,3.1l-2,10.3c-0.5,2.2-0.8,4-1.2,5.9c-2.9,11.4-5,22.4-8,34
	C98.8,220.4,98.4,217.6,98.4,217.6z"/>
<linearGradient id="SVGID_3_" gradientUnits="userSpaceOnUse" x1="-83.5514" y1="39.5746" x2="-40.2005" y2="-3.7762" gradientTransform="matrix(0.8687 0.4954 -0.2233 0.3916 138.5075 198.793)">
	<stop  offset="1.884766e-02" style="stop-color:#69C2C9"/>
	<stop  offset="0.1537" style="stop-color:#68BFC8"/>
	<stop  offset="0.2962" style="stop-color:#64B7C6"/>
	<stop  offset="0.4422" style="stop-color:#5EA9C2"/>
	<stop  offset="0.5907" style="stop-color:#5796BC"/>
	<stop  offset="0.7412" style="stop-color:#4E80B3"/>
	<stop  offset="0.891" style="stop-color:#4467AA"/>
	<stop  offset="1" style="stop-color:#3D52A3"/>
</linearGradient>
<path class="st2" d="M72,193.4c0.4-9.3,3.8-17.5,6.6-25.5c0-0.1,0-0.1,0.1-0.2c0.5-1.1,1.1-2.2,1.7-3.6c0-0.1,0-0.1,0.1-0.2l3.7-6.5
	c0.5-0.8,1.5-1.1,2.4-0.7l4.7,2.7c0.8,0.5,1.1,1.5,0.7,2.4l-3.7,6.5c-0.8,1.3-1.5,2.5-2.1,3.6c0,0,0,0.1-0.1,0.1
	c-4.8,6.8-8.7,13.7-13.5,20.5C72.1,193.2,72,193.4,72,193.4z"/>
<linearGradient id="SVGID_4_" gradientUnits="userSpaceOnUse" x1="-194.3528" y1="447.5527" x2="-155.6547" y2="408.8546" gradientTransform="matrix(0.3218 0.9468 -0.6212 0.2111 367.9493 217.1771)">
	<stop  offset="1.884766e-02" style="stop-color:#69C2C9"/>
	<stop  offset="0.2456" style="stop-color:#69C0C8"/>
	<stop  offset="0.3922" style="stop-color:#66BAC7"/>
	<stop  offset="0.516" style="stop-color:#62B1C4"/>
	<stop  offset="0.6273" style="stop-color:#5CA3C0"/>
	<stop  offset="0.73" style="stop-color:#5592BA"/>
	<stop  offset="0.8266" style="stop-color:#4E7EB3"/>
	<stop  offset="0.9166" style="stop-color:#4569AB"/>
	<stop  offset="1" style="stop-color:#3D52A3"/>
</linearGradient>
<path class="st3" d="M21.7,150.3c5-7.3,13-10.2,19.8-13.3c0.1,0,0.1,0,0.2-0.1l8.1-2.8l15.4-5.2c0.9-0.3,1.8,0.2,2.1,1.1l1.8,5.2
	c0.3,0.9-0.2,1.8-1.1,2.1l-15.4,5.2c-2.8,1-5.7,1.9-8.2,2.8c-6.9,2.6-13.9,5-20.6,7.3c0,0-0.1,0-0.1,0
	C22.1,153.3,20.8,151.6,21.7,150.3z"/>
<linearGradient id="SVGID_5_" gradientUnits="userSpaceOnUse" x1="-54.2036" y1="785.5956" x2="-15.6508" y2="747.0428" gradientTransform="matrix(-0.648 0.7617 -0.5087 -0.4328 429.7275 408.6866)">
	<stop  offset="1.884766e-02" style="stop-color:#69C2C9"/>
	<stop  offset="0.127" style="stop-color:#68BDC8"/>
	<stop  offset="0.2763" style="stop-color:#62B2C4"/>
	<stop  offset="0.4496" style="stop-color:#5A9FBF"/>
	<stop  offset="0.641" style="stop-color:#5186B6"/>
	<stop  offset="0.8446" style="stop-color:#456AAB"/>
	<stop  offset="1" style="stop-color:#3D52A3"/>
</linearGradient>
<path class="st4" d="M43.1,33.8c8.7,0.8,15.2,6.2,21.3,10.4c0,0,0,0,0.1,0.1l6.7,5.7l12.9,11c0.5,0.5,0.5,1.5-0.2,2.2l-3.5,4.1
	c-0.6,0.7-1.6,1-2.1,0.5l-12.9-11c-2.3-2-4.6-3.9-6.7-5.7c-5.8-4.7-11.6-9.6-17.2-14.2c0,0,0,0-0.1-0.1
	C40.3,35.9,41.6,33.7,43.1,33.8z"/>
<linearGradient id="SVGID_6_" gradientUnits="userSpaceOnUse" x1="-264.4898" y1="640.9687" x2="-222.1163" y2="598.5952" gradientTransform="matrix(-0.1621 0.9868 -0.6984 -0.1148 431.3848 405.5215)">
	<stop  offset="1.884766e-02" style="stop-color:#69C2C9"/>
	<stop  offset="0.2456" style="stop-color:#69C0C8"/>
	<stop  offset="0.3922" style="stop-color:#66BAC7"/>
	<stop  offset="0.516" style="stop-color:#62B1C4"/>
	<stop  offset="0.6273" style="stop-color:#5CA3C0"/>
	<stop  offset="0.73" style="stop-color:#5592BA"/>
	<stop  offset="0.8266" style="stop-color:#4E7EB3"/>
	<stop  offset="0.9166" style="stop-color:#4569AB"/>
	<stop  offset="1" style="stop-color:#3D52A3"/>
</linearGradient>
<path class="st5" d="M8.6,89.5c13,0.2,15.8-0.8,28.7,0.3c0,0,0,0,0.1,0l9.2,1.5l18.1,3c0.6,0.1,0.9,0.7,0.8,1.4l-1.1,6.4
	c-0.1,0.7-0.7,1.1-1.2,1l-18.1-3c-3.2-0.5-6.4-1-9.2-1.5C23.2,95.8,20.9,94.7,8.6,89.5C8.2,89.3,8.6,89.5,8.6,89.5z"/>
<linearGradient id="SVGID_7_" gradientUnits="userSpaceOnUse" x1="123.9007" y1="769.7949" x2="162.5988" y2="731.0968" gradientTransform="matrix(-0.9949 0.1009 -6.309504e-02 -0.6223 303.009 479.8966)">
	<stop  offset="1.884766e-02" style="stop-color:#69C2C9"/>
	<stop  offset="0.1265" style="stop-color:#68BDC8"/>
	<stop  offset="0.2764" style="stop-color:#62B2C4"/>
	<stop  offset="0.4512" style="stop-color:#5A9FBF"/>
	<stop  offset="0.6447" style="stop-color:#5086B5"/>
	<stop  offset="0.8511" style="stop-color:#4569AB"/>
	<stop  offset="1" style="stop-color:#3D52A3"/>
</linearGradient>
<path class="st6" d="M110.5,3.2c6,6.2,6.9,14.2,8.4,21.2c0,0.1,0,0.1,0,0.2l0.8,8.1l1.6,15.4c0.1,0.9-0.6,1.7-1.5,1.8l-5.5,0.6
	c-0.9,0.1-1.8-0.5-1.8-1.4l-1.6-15.4c-0.3-2.8-0.6-5.7-0.8-8.2c-0.9-6.9-1.6-14-2.4-20.8c0,0,0-0.1,0-0.1
	C107.4,3,109.4,2.1,110.5,3.2z"/>
<linearGradient id="SVGID_8_" gradientUnits="userSpaceOnUse" x1="190.8311" y1="899.2836" x2="229.3839" y2="860.7308" gradientTransform="matrix(-0.9792 -0.2028 9.878161e-02 -0.4769 258.8367 496.157)">
	<stop  offset="1.884766e-02" style="stop-color:#69C2C9"/>
	<stop  offset="0.127" style="stop-color:#68BDC8"/>
	<stop  offset="0.2763" style="stop-color:#62B2C4"/>
	<stop  offset="0.4496" style="stop-color:#5A9FBF"/>
	<stop  offset="0.641" style="stop-color:#5186B6"/>
	<stop  offset="0.8446" style="stop-color:#456AAB"/>
	<stop  offset="1" style="stop-color:#3D52A3"/>
</linearGradient>
<path class="st7" d="M143.9,15.6c3.8,6.1,2.7,12.2,2.3,17.6c0,0,0,0,0,0.1l-1.3,6.2l-2.5,12.1c-0.1,0.5-1,0.8-1.9,0.6l-5.3-1.1
	c-1-0.2-1.7-0.8-1.6-1.3l2.5-12.1c0.5-2.2,0.9-4.3,1.3-6.3c0.9-5.4,2-10.8,3-16c0,0,0,0,0-0.1C140.7,14.4,143.2,14.6,143.9,15.6z"/>
<linearGradient id="SVGID_9_" gradientUnits="userSpaceOnUse" x1="69.7718" y1="1006.7911" x2="112.0442" y2="964.5187" gradientTransform="matrix(-0.8827 0.4699 -0.203 -0.3813 369.011 373.2516)">
	<stop  offset="1.884766e-02" style="stop-color:#69C2C9"/>
	<stop  offset="0.3254" style="stop-color:#69C0C8"/>
	<stop  offset="0.4711" style="stop-color:#67BBC7"/>
	<stop  offset="0.5829" style="stop-color:#63B3C5"/>
	<stop  offset="0.6774" style="stop-color:#5DA7C1"/>
	<stop  offset="0.7609" style="stop-color:#5798BC"/>
	<stop  offset="0.8368" style="stop-color:#5186B6"/>
	<stop  offset="0.9068" style="stop-color:#4972AE"/>
	<stop  offset="0.9705" style="stop-color:#415DA6"/>
	<stop  offset="1" style="stop-color:#3D52A3"/>
</linearGradient>
<path class="st8" d="M79.9,25c7.5,5,10.7,10.5,15.9,16.8c0,0,0.1,0.1,0.1,0.2c0.6,1,1.3,2,2.1,3.2c0,0,0.1,0.1,0.1,0.1l3.4,6.4
	c0.4,0.8-0.2,1.9-1.3,2.5L96.6,56c-1.3,0.7-2.7,0.5-3.2-0.3l-3.3-6.3c-0.7-1.4-1.3-2.5-1.8-3.6c-3.1-7.4-6.6-14.1-9.7-21.5
	C78.3,23.7,79.9,25,79.9,25z"/>
<linearGradient id="SVGID_10_" gradientUnits="userSpaceOnUse" x1="-172.5896" y1="759.5767" x2="-133.8916" y2="720.8786" gradientTransform="matrix(-0.4672 0.8842 -0.5801 -0.3065 405.2327 434.7086)">
	<stop  offset="1.884766e-02" style="stop-color:#69C2C9"/>
	<stop  offset="0.2456" style="stop-color:#69C0C8"/>
	<stop  offset="0.3922" style="stop-color:#66BAC7"/>
	<stop  offset="0.516" style="stop-color:#62B1C4"/>
	<stop  offset="0.6273" style="stop-color:#5CA3C0"/>
	<stop  offset="0.73" style="stop-color:#5592BA"/>
	<stop  offset="0.8266" style="stop-color:#4E7EB3"/>
	<stop  offset="0.9166" style="stop-color:#4569AB"/>
	<stop  offset="1" style="stop-color:#3D52A3"/>
</linearGradient>
<path class="st9" d="M24.9,60.7c8.7-1.4,16.3,2.5,23.2,5.3c0.1,0,0.1,0,0.1,0.1l7.6,4l14.4,7.6c0.8,0.4,1.1,1.5,0.7,2.3l-2.6,4.9
	c-0.4,0.8-1.5,1.1-2.3,0.7l-14.4-7.6c-2.6-1.4-5.3-2.8-7.6-4c-6.6-3.2-13.2-6.7-19.5-10c0,0-0.1,0-0.1,0
	C23,63.1,23.3,60.9,24.9,60.7z"/>
<linearGradient id="SVGID_11_" gradientUnits="userSpaceOnUse" x1="-214.2323" y1="627.4592" x2="-170.8815" y2="584.1083" gradientTransform="matrix(3.710563e-02 0.9993 -0.4505 1.672971e-02 325.2972 302.8644)">
	<stop  offset="1.884766e-02" style="stop-color:#69C2C9"/>
	<stop  offset="0.1537" style="stop-color:#68BFC8"/>
	<stop  offset="0.2962" style="stop-color:#64B7C6"/>
	<stop  offset="0.4422" style="stop-color:#5EA9C2"/>
	<stop  offset="0.5907" style="stop-color:#5796BC"/>
	<stop  offset="0.7412" style="stop-color:#4E80B3"/>
	<stop  offset="0.891" style="stop-color:#4467AA"/>
	<stop  offset="1" style="stop-color:#3D52A3"/>
</linearGradient>
<path class="st10" d="M25.1,122.7c8.1-4.6,16.9-6,25.2-7.8c0.1,0,0.1,0,0.2,0c1.2-0.1,2.5-0.2,3.9-0.4c0.1,0,0.1,0,0.2,0l7.4-0.3
	c1,0,1.8,0.7,1.8,1.7l0.2,5.4c0,1-0.7,1.8-1.7,1.8l-7.5,0.3c-1.6,0-2.9,0-4.2,0.1c0,0-0.1,0-0.1,0c-8.3-0.4-16.2-0.2-24.6-0.6
	C25.4,122.7,25.1,122.7,25.1,122.7z"/>
<linearGradient id="SVGID_12_" gradientUnits="userSpaceOnUse" x1="-160.1207" y1="252.4999" x2="-117.8482" y2="210.2275" gradientTransform="matrix(0.6606 0.7507 -0.3961 0.3486 242.8675 184.4244)">
	<stop  offset="1.884766e-02" style="stop-color:#69C2C9"/>
	<stop  offset="0.3254" style="stop-color:#69C0C8"/>
	<stop  offset="0.4711" style="stop-color:#67BBC7"/>
	<stop  offset="0.5829" style="stop-color:#63B3C5"/>
	<stop  offset="0.6774" style="stop-color:#5DA7C1"/>
	<stop  offset="0.7609" style="stop-color:#5798BC"/>
	<stop  offset="0.8368" style="stop-color:#5186B6"/>
	<stop  offset="0.9068" style="stop-color:#4972AE"/>
	<stop  offset="0.9705" style="stop-color:#415DA6"/>
	<stop  offset="1" style="stop-color:#3D52A3"/>
</linearGradient>
<path class="st11" d="M43.7,175.3c4.4-9.6,10.1-14.9,16.4-22.6c0-0.1,0.1-0.1,0.2-0.2c1-1,2.1-2,3.3-3.3c0,0,0.1-0.1,0.1-0.1
	l6.6-5.8c0.8-0.7,2.1-0.5,3,0.5l2.6,3c1,1.1,1,2.6,0.1,3.4l-6.5,5.7c-1.4,1.2-2.6,2.2-3.8,3.2c-7.8,5.8-14.7,12-22.6,17.9
	C42.6,177.5,43.7,175.3,43.7,175.3z"/>
<linearGradient id="SVGID_13_" gradientUnits="userSpaceOnUse" x1="58.1722" y1="-459.0546" x2="96.8703" y2="-497.7527" gradientTransform="matrix(0.9873 -0.1586 7.363346e-02 0.4584 88.332 416.9389)">
	<stop  offset="1.884766e-02" style="stop-color:#69C2C9"/>
	<stop  offset="0.2456" style="stop-color:#69C0C8"/>
	<stop  offset="0.3922" style="stop-color:#66BAC7"/>
	<stop  offset="0.516" style="stop-color:#62B1C4"/>
	<stop  offset="0.6273" style="stop-color:#5CA3C0"/>
	<stop  offset="0.73" style="stop-color:#5592BA"/>
	<stop  offset="0.8266" style="stop-color:#4E7EB3"/>
	<stop  offset="0.9166" style="stop-color:#4569AB"/>
	<stop  offset="1" style="stop-color:#3D52A3"/>
</linearGradient>
<path class="st12" d="M132.7,203c-6-4.1-7.1-10-8.7-15.1c0,0,0-0.1,0-0.1l-1-6l-1.8-11.4c-0.1-0.7,0.6-1.3,1.5-1.5l5.5-0.9
	c0.9-0.1,1.8,0.3,1.9,0.9l1.8,11.4c0.3,2.1,0.7,4.2,1,6c1,5.1,1.9,10.3,2.8,15.3c0,0,0,0,0,0.1C135.8,202.9,133.8,203.8,132.7,203z"
	/>
</svg>
